<svg width="992" height="992" viewBox="0 0 992 992" fill="none" xmlns="http://www.w3.org/2000/svg">
<rect width="992" height="992" rx="150" fill="#FAFAFA"/>
<path d="M193 282.2L287.8 567.2C291 577.2 294 587 296.8 596.6C299.6 605.8 302.6 616 305.8 627.2C309 616.8 311.8 607.4 314.2 599C316.6 590.2 319.4 581.2 322.6 572L422.2 281.6H470.2L319 720.8H284.2L133.6 282.2H193ZM724.089 726.2C689.689 726.2 659.889 720.2 634.689 708.2C609.889 696.2 589.289 680 572.889 659.6C556.489 638.8 544.289 615.4 536.289 589.4C528.689 563.4 524.889 536.6 524.889 509C524.889 479 529.289 450.2 538.089 422.6C546.889 394.6 559.689 369.6 576.489 347.6C593.689 325.6 615.089 308.2 640.689 295.4C666.289 282.6 695.889 276.2 729.489 276.2C743.489 276.2 758.689 278 775.089 281.6C791.889 284.8 807.889 289.8 823.089 296.6C838.289 303.4 850.689 312.4 860.289 323.6L829.089 358.4C817.489 345.6 801.889 335.8 782.289 329C763.089 321.8 745.089 318.2 728.289 318.2C705.089 318.2 684.689 323.6 667.089 334.4C649.489 344.8 634.689 359 622.689 377C610.689 395 601.489 415.2 595.089 437.6C589.089 460 586.089 482.8 586.089 506C586.089 542 591.889 573.2 603.489 599.6C615.089 625.6 631.489 645.8 652.689 660.2C673.889 674.2 698.889 681.2 727.689 681.2C744.489 681.2 762.689 678.8 782.289 674C801.889 669.2 822.089 661.6 842.889 651.2L861.489 685.4C849.889 693.8 835.889 701 819.489 707C803.489 713 787.089 717.6 770.289 720.8C753.489 724.4 738.089 726.2 724.089 726.2Z" fill="#333333"/>
</svg>
